<?xml version="1.0" encoding="UTF-8" standalone="no"?>
<svg
   width="100%"
   height="100%"
   viewBox="0 0 2296 1548"
   version="1.1"
   xml:space="preserve"
   style="fill-rule:evenodd;clip-rule:evenodd;stroke-miterlimit:10;"
   id="svg34"
   sodipodi:docname="Icon.svg"
   inkscape:version="1.1.2 (0a00cf5339, 2022-02-04)"
   xmlns:inkscape="http://www.inkscape.org/namespaces/inkscape"
   xmlns:sodipodi="http://sodipodi.sourceforge.net/DTD/sodipodi-0.dtd"
   xmlns="http://www.w3.org/2000/svg"
   xmlns:svg="http://www.w3.org/2000/svg"><defs
     id="defs38"><clipPath
       clipPathUnits="userSpaceOnUse"
       id="clipPath16"><path
         d="M 0,841.89 H 595.276 V 0 H 0 Z"
         id="path14" /></clipPath></defs><sodipodi:namedview
     id="namedview36"
     pagecolor="#ffffff"
     bordercolor="#666666"
     borderopacity="1.0"
     inkscape:pageshadow="2"
     inkscape:pageopacity="0.0"
     inkscape:pagecheckerboard="0"
     showgrid="false"
     inkscape:zoom="0.13049096"
     inkscape:cx="-1977.1485"
     inkscape:cy="298.87129"
     inkscape:window-width="1920"
     inkscape:window-height="1000"
     inkscape:window-x="0"
     inkscape:window-y="44"
     inkscape:window-maximized="1"
     inkscape:current-layer="svg34" /><g
     id="g12"
     clip-path="url(#clipPath16)"
     transform="matrix(5.2565214,0,0,-5.2565214,-409.08017,2998.8165)"><g
       id="g18"
       transform="translate(441.4853,421.3898)"><path
         d="m 0,0 c 0,-79.245 -64.241,-143.485 -143.485,-143.485 -79.245,0 -143.486,64.24 -143.486,143.485 0,79.245 64.241,143.485 143.486,143.485 C -64.241,143.485 0,79.245 0,0"
         style="fill:#ffffff;fill-opacity:1;fill-rule:nonzero;stroke:none"
         id="path20" /></g><g
       id="g22"
       transform="translate(300.8034,514.5317)"><path
         d="m 0,0 c 50.874,7.986 95.427,-9.936 124.856,-27.661 -23.801,46.306 -72.013,78.004 -127.66,78.004 -79.244,0 -143.485,-64.24 -143.485,-143.485 0,-46.08 21.748,-87.057 55.51,-113.309 v 116.038 c 0,0 1.674,76.385 90.779,90.413"
         style="fill:#c61d23;fill-opacity:1;fill-rule:nonzero;stroke:none"
         id="path24" /></g><g
       id="g26"
       transform="translate(386.3143,323.2754)"><path
         d="m 0,0 c -15.784,-0.578 -23.039,6.875 -23.666,11.107 -0.663,4.466 -3.35,25.885 -6.467,33.902 -2.724,6.996 -13.186,14.31 -21.464,14.049 -1.254,-0.053 -2.204,-1.168 -2.025,-2.417 0.324,-2.182 0.502,-4.417 0.502,-6.718 0,-18.472 -11.036,-33.468 -24.652,-33.468 -13.615,0 -24.652,14.996 -24.652,33.468 0,9.056 2.652,17.252 6.934,23.267 0,0 9.567,17.921 38.572,10.158 13.473,-3.296 22.198,-12.061 26.855,-18.215 1.273,-1.662 3.924,-0.65 3.764,1.446 -0.897,11.543 -3.708,32.634 -12.542,42.259 -12.326,13.423 -41.618,20.773 -64.891,8.944 -0.591,-0.287 -1.271,-0.313 -1.863,-0.04 -1.397,0.654 -1.63,2.535 -0.448,3.511 7.292,6.047 30.816,21.867 66.54,10.32 C -8.94,121.325 -5.16,97.457 -2.258,79.59 0.466,62.876 -1.128,16.707 1.971,2.558 2.258,1.276 1.308,0.049 0,0 m 48.409,141.703 c -23.186,16.886 -66.91,37.953 -123.51,15.753 -63.665,-24.897 -62.41,-62.647 -62.41,-62.647 l -0.724,-131.242 c 15.549,-5.771 32.364,-8.938 49.92,-8.938 79.246,0 143.486,64.241 143.486,143.485 0,15.201 -2.382,29.84 -6.762,43.589"
         style="fill:#c61d23;fill-opacity:1;fill-rule:nonzero;stroke:none"
         id="path28" /></g></g></svg>
